<svg width="196" height="49" viewBox="0 0 196 49" fill="none" xmlns="http://www.w3.org/2000/svg">
<g clip-path="url(#clip0_2077_24)">
<path d="M74.27 9.19648C74.27 7.19874 75.4317 5.86733 77.1729 5.86733H86.3475C91.1787 5.84077 94.5927 9.6504 94.5927 15.057V15.2972C94.5927 20.705 91.1787 24.5134 86.3475 24.5134H77.1729C75.4304 24.5134 74.27 23.182 74.27 21.1842V9.19648ZM86.3255 21.929C89.8092 21.9555 92.2952 19.1852 92.2952 15.2959V15.0557C92.2952 11.1664 89.8092 8.42267 86.3255 8.42267H77.8712C77.1045 8.42267 76.5933 9.00809 76.5933 9.88811V20.4635C76.5933 21.3423 77.1045 21.929 77.8712 21.929H86.3255Z" fill="white"/>
<path d="M96.9173 15.3238V15.057C96.9173 9.51638 100.331 5.86733 105.163 5.86733H112.364C117.195 5.86733 120.609 9.51638 120.609 15.057V15.3238C120.609 20.8643 117.195 24.5134 112.364 24.5134H105.163C100.331 24.5134 96.9173 20.8643 96.9173 15.3238ZM112.364 21.8771C115.847 21.8771 118.31 19.3205 118.31 15.3238V15.057C118.31 11.0615 115.847 8.50359 112.364 8.50359H105.163C101.679 8.50359 99.2161 11.0602 99.2161 15.057V15.3238C99.2161 19.3192 101.679 21.8771 105.163 21.8771H112.364Z" fill="white"/>
<path d="M120.609 21.8493H128.275C132.107 21.8493 133.733 19.5848 133.733 15.3225V5.86733H136.056V15.3238C136.056 21.5041 133.733 24.5134 128.275 24.5134H120.609V21.8493Z" fill="white"/>
<path d="M138.842 15.3238V15.057C138.842 9.51638 142.256 5.86733 147.087 5.86733H154.288C159.119 5.86733 162.533 9.51638 162.533 15.057V15.3238C162.533 20.8643 159.119 24.5134 154.288 24.5134H147.087C142.256 24.5134 138.842 20.8643 138.842 15.3238ZM154.288 21.8771C157.772 21.8771 160.235 19.3205 160.235 15.3238V15.057C160.235 11.0615 157.772 8.50359 154.288 8.50359H147.087C143.603 8.50359 141.141 11.0602 141.141 15.057V15.3238C141.141 19.3192 143.603 21.8771 147.087 21.8771H154.288Z" fill="white"/>
<path d="M74.3965 42.9736V39.9694C74.3965 38.6279 75.1761 37.7339 76.3455 37.7339H82.4894C84.4385 37.7339 85.4995 36.357 85.4995 35.1052V34.7474C85.4995 33.5134 84.4398 32.1187 82.4894 32.1187H74.3965V30.4561H82.6456C85.9512 30.4561 87.0277 33.1378 87.0277 34.7474V35.1052C87.0277 36.7679 85.8738 39.3966 82.6456 39.3966H76.8141C76.2991 39.3966 75.957 39.7898 75.957 40.3803V42.9736H74.3965Z" fill="white"/>
<path d="M88.898 30.4561H97.786C100.999 30.4561 101.528 32.4589 101.528 33.8535V34.1392C101.528 35.4441 101.028 37.1612 98.6121 37.4836L101.528 42.9736H99.7815L96.9586 37.5379V35.8753H97.4582C99.4072 35.8753 99.9996 35.3746 99.9996 34.1228V33.8725C99.9996 32.6384 99.4072 32.12 97.4582 32.12H90.4572V42.9749H88.898V30.4561Z" fill="white"/>
<path d="M103.399 36.8046V36.6263C103.399 32.9065 105.692 30.4573 108.935 30.4573H113.769C117.013 30.4573 119.305 32.9077 119.305 36.6263V36.8046C119.305 40.5244 117.013 42.9736 113.769 42.9736H108.935C105.692 42.9736 103.399 40.5232 103.399 36.8046ZM113.769 41.2034C116.108 41.2034 117.761 39.4864 117.761 36.8046V36.6263C117.761 33.9445 116.108 32.2275 113.769 32.2275H108.935C106.597 32.2275 104.943 33.9445 104.943 36.6263V36.8046C104.943 39.4864 106.597 41.2034 108.935 41.2034H113.769Z" fill="white"/>
<path d="M120.863 30.4561H124.84V32.2439H120.863V30.4561ZM126.399 32.6915C126.399 31.35 127.179 30.4561 128.348 30.4561H133.494V32.2439H128.817C128.302 32.2439 127.96 32.6371 127.96 33.2276V42.9736H126.4V32.6915H126.399Z" fill="white"/>
<path d="M135.054 36.8046V36.6263C135.054 32.9065 137.346 30.4573 140.589 30.4573H145.423C148.667 30.4573 150.959 32.9077 150.959 36.6263V36.8046C150.959 40.5244 148.667 42.9736 145.423 42.9736H140.589C137.346 42.9736 135.054 40.5232 135.054 36.8046ZM145.423 41.2034C147.762 41.2034 149.416 39.4864 149.416 36.8046V36.6263C149.416 33.9445 147.762 32.2275 145.423 32.2275H140.589C138.251 32.2275 136.597 33.9445 136.597 36.6263V36.8046C136.597 39.4864 138.251 41.2034 140.589 41.2034H145.423Z" fill="white"/>
<path d="M152.517 36.8046V36.6263C152.517 32.9065 154.81 30.4573 158.053 30.4573H165.912V32.2275H158.053C155.714 32.2275 154.061 33.9445 154.061 36.6263V36.8046C154.061 39.4864 155.714 41.2034 158.053 41.2034H165.912V42.9736H158.053C154.81 42.9736 152.517 40.5232 152.517 36.8046Z" fill="white"/>
<path d="M167.781 36.8046V36.6263C167.781 32.9065 170.074 30.4573 173.317 30.4573H178.151C181.395 30.4573 183.687 32.9077 183.687 36.6263V36.8046C183.687 40.5244 181.395 42.9736 178.151 42.9736H173.317C170.074 42.9736 167.781 40.5232 167.781 36.8046ZM178.151 41.2034C180.49 41.2034 182.144 39.4864 182.144 36.8046V36.6263C182.144 33.9445 180.49 32.2275 178.151 32.2275H173.317C170.979 32.2275 169.325 33.9445 169.325 36.6263V36.8046C169.325 39.4864 170.979 41.2034 173.317 41.2034H178.151Z" fill="white"/>
<path d="M187.117 30.4561V41.1857H196.675V42.9736H185.556V30.4561H187.117Z" fill="white"/>
<g clip-path="url(#clip1_2077_24)">
<path d="M30.2166 48.5C43.7475 48.5 54.7166 37.7548 54.7166 24.5C54.7166 11.2452 43.7475 0.5 30.2166 0.5C16.6856 0.5 5.71655 11.2452 5.71655 24.5C5.71655 37.7548 16.6856 48.5 30.2166 48.5Z" fill="white"/>
<mask id="mask0_2077_24" style="mask-type:luminance" maskUnits="userSpaceOnUse" x="5" y="0" width="50" height="49">
<path d="M30.2166 48.5C43.7475 48.5 54.7166 37.7548 54.7166 24.5C54.7166 11.2452 43.7475 0.5 30.2166 0.5C16.6856 0.5 5.71655 11.2452 5.71655 24.5C5.71655 37.7548 16.6856 48.5 30.2166 48.5Z" fill="white"/>
</mask>
<g mask="url(#mask0_2077_24)">
<path d="M48.4672 18.0304L52.302 13.5782L53.3999 10.7261H50.2923C50.2923 10.7261 42.9991 15.0391 30.5716 15.0391C18.144 15.0391 10.3324 10.7261 10.3324 10.7261L7.27881 12.3261L11.9899 18.0304H17.2208V21.2304H11.1136L13.8136 24.3609H17.2208V47.6652H20.4875V24.3609H40.0875V47.6652H43.3542V24.3609H46.8467L49.3464 21.2304H43.3542V18.0304H48.4672ZM20.4875 18.0304H28.7252V21.2304H20.4875V18.0304ZM40.0875 21.2304H31.9918V18.0304H40.0875V21.2304Z" fill="black"/>
</g>
</g>
</g>
<defs>
<clipPath id="clip0_2077_24">
<rect width="196" height="48" fill="white" transform="translate(0 0.5)"/>
</clipPath>
<clipPath id="clip1_2077_24">
<rect width="49" height="48" fill="white" transform="translate(5.71655 0.5)"/>
</clipPath>
</defs>
</svg>
